HIERARCHY
ROOT Hips
{
	OFFSET -3.958830 18.904000 13.208200
	CHANNELS 6 Xposition Yposition Zposition Zrotation Yrotation Xrotation 
	JOINT LHipJoint
	{
		OFFSET 0.000000 0.000000 0.000000
		CHANNELS 3 Zrotation Yrotation Xrotation
		JOINT LeftUpLeg
		{
			OFFSET 1.800000 -1.400000 0.085000
			CHANNELS 3 Zrotation Yrotation Xrotation
			JOINT LeftLeg
			{
				OFFSET 2.215000 -6.000000 0.000000
				CHANNELS 3 Zrotation Yrotation Xrotation
				JOINT LeftFoot
				{
					OFFSET 2.500000 -6.900000 0.000000
					CHANNELS 3 Zrotation Yrotation Xrotation
					JOINT LeftToeBase
					{
						OFFSET 0.200000 -0.500000 1.950000
						CHANNELS 3 Zrotation Yrotation Xrotation
						End Site
						{
							OFFSET 0.000000 0.000000 0.000000
						}
					}
				}
			}
		}
	}
	JOINT RHipJoint
	{
		OFFSET 0.000000 0.000000 0.000000
		CHANNELS 3 Zrotation Yrotation Xrotation
		JOINT RightUpLeg
		{
			OFFSET -1.800000 -1.400000 0.085000
			CHANNELS 3 Zrotation Yrotation Xrotation
			JOINT RightLeg
			{
				OFFSET -2.215000 -6.000000 0.000000
				CHANNELS 3 Zrotation Yrotation Xrotation
				JOINT RightFoot
				{
					OFFSET -2.500000 -6.900000 0.000000
					CHANNELS 3 Zrotation Yrotation Xrotation
					JOINT RightToeBase
					{
						OFFSET -0.200000 -0.500000 1.950000
						CHANNELS 3 Zrotation Yrotation Xrotation
						End Site
						{
							OFFSET 0.000000 0.000000 0.000000
						}
					}
				}
			}
		}
	}
	JOINT LowerBack
	{
		OFFSET 0.000000 0.000000 0.000000
		CHANNELS 3 Zrotation Yrotation Xrotation
		JOINT Spine
		{
			OFFSET -0.087000 1.940000 -0.288900
			CHANNELS 3 Zrotation Yrotation Xrotation
			JOINT Spine1
			{
				OFFSET 0.000000 1.950000 0.060000
				CHANNELS 3 Zrotation Yrotation Xrotation
				JOINT Neck
				{
					OFFSET 0.000000 0.000000 0.000000
					CHANNELS 3 Zrotation Yrotation Xrotation
					JOINT Neck1
					{
						OFFSET 0.000000 1.600000 0.340000
						CHANNELS 3 Zrotation Yrotation Xrotation
						JOINT Head
						{
							OFFSET 0.000000 1.667000 -0.240000
							CHANNELS 3 Zrotation Yrotation Xrotation
							End Site
							{
								OFFSET 0.000000 0.000000 0.000000
							}
						}
					}
				}
				JOINT LeftShoulder
				{
					OFFSET 0.000000 0.000000 0.000000
					CHANNELS 3 Zrotation Yrotation Xrotation
					JOINT LeftArm
					{
						OFFSET 2.700000 1.550000 -0.730000
						CHANNELS 3 Zrotation Yrotation Xrotation
						JOINT LeftForeArm
						{
							OFFSET 5.450000 0.000000 0.000000
							CHANNELS 3 Zrotation Yrotation Xrotation
							JOINT LeftHand
							{
								OFFSET 3.450000 0.000000 0.000000
								CHANNELS 3 Zrotation Yrotation Xrotation
								JOINT LeftHandIndex1
								{
									OFFSET 0.750000 0.000000 0.000000
									CHANNELS 3 Zrotation Yrotation Xrotation
									End Site
									{
										OFFSET 0.000000 0.000000 0.000000
									}
								}
							}
						}
					}
				}
				JOINT RightShoulder
				{
					OFFSET 0.000000 0.000000 0.000000
					CHANNELS 3 Zrotation Yrotation Xrotation
					JOINT RightArm
					{
						OFFSET -2.700000 1.550000 -0.730000
						CHANNELS 3 Zrotation Yrotation Xrotation
						JOINT RightForeArm
						{
							OFFSET -5.450000 0.000000 0.000000
							CHANNELS 3 Zrotation Yrotation Xrotation
							JOINT RightHand
							{
								OFFSET -3.450000 0.000000 0.000000
								CHANNELS 3 Zrotation Yrotation Xrotation
								JOINT RightHandIndex1
								{
									OFFSET -0.750000 0.000000 0.000000
									CHANNELS 3 Zrotation Yrotation Xrotation
									End Site
									{
										OFFSET 0.000000 0.000000 0.000000
									}
								}
							}
						}
					}
				}
			}
		}
	}
}
MOTION
Frames: 5
Frame Time: 0.016667
0.541490 17.426430 0.364320 -20.960528 30.643740 -10.692876 -15.279865 11.585547 2.609374 16.357019 -2.957849 -29.458267 -4.966559 9.131311 30.748502 -0.653930 6.496316 2.193849 0.121050 -0.256380 -0.152980 18.614669 -7.563996 6.208234 -20.726575 14.347760 -52.633338 41.753039 -35.438677 56.489308 -2.703605 -13.480349 0.124550 0.018930 0.521160 0.127150 -4.194541 -2.472650 -9.599916 11.519693 -5.391696 40.849061 -5.243264 0.461356 1.042691 -0.976562 -9.009993 -8.924524 -23.843980 3.357162 45.676128 12.280310 -11.959340 -17.106620 -25.326288 -12.232863 0.447274 -26.475524 -10.639252 -6.920622 5.675291 -40.382075 -3.566121 -3.648594 2.566830 0.817380 -0.022600 -0.081950 0.185190 26.899677 18.801540 7.425220 32.725505 5.767727 -13.396078 -2.617051 42.628359 -1.821709 1.748779 -1.020715 -0.454390 0.621070 0.398070 -0.111180 
0.531550 17.419910 0.345570 -21.470550 30.816871 -11.161539 -15.282540 11.576207 2.585744 16.576332 -2.891818 -29.521232 -4.603391 9.026938 30.808379 -0.692236 6.494160 2.194173 0.125320 -0.261350 -0.138100 18.620269 -7.531526 6.246722 -21.006338 14.425997 -53.075310 42.561265 -35.585560 55.992690 -2.711524 -13.448346 0.132815 0.026900 0.518240 0.119190 -4.203157 -2.467295 -9.612997 11.779381 -5.624786 41.734646 -5.325606 0.488216 1.369251 -0.895768 -8.967168 -9.056028 -23.671226 3.096121 45.652424 12.299650 -11.963250 -17.941960 -25.248674 -12.976718 0.554960 -25.649340 -10.768129 -7.171602 6.356664 -41.268048 -3.868540 -3.634503 2.539758 0.846760 -0.031670 -0.076530 0.181950 26.683407 19.513500 7.633253 32.352441 6.039362 -13.750022 -3.529774 43.401765 -2.178556 1.722877 -1.004837 -0.477180 0.643220 0.402520 -0.126360 
0.501550 17.413730 0.320190 -22.184727 30.939791 -11.698110 -15.292836 11.559237 2.554140 16.884345 -2.729696 -29.716359 -4.075938 8.854337 30.652762 -0.720505 6.422351 2.215846 0.141380 -0.237670 -0.114740 18.625195 -7.467346 6.321628 -21.305627 14.803477 -54.023759 43.667495 -35.500008 55.227808 -2.718261 -13.362987 0.159767 0.041610 0.505010 0.105480 -4.190467 -2.466317 -9.642309 11.681022 -5.623585 43.064482 -5.199726 0.698899 2.151625 -0.853679 -8.697789 -9.427117 -22.906267 2.768451 45.655243 12.673960 -11.702960 -19.110440 -24.579876 -14.391701 0.954175 -24.590382 -10.874233 -7.651110 7.994577 -42.455481 -4.548166 -3.602654 2.506555 0.867310 -0.046680 -0.060460 0.178690 26.019876 20.872298 8.001156 32.037344 6.593581 -14.519827 -5.773385 44.976980 -3.146634 1.689325 -0.987272 -0.485520 0.665200 0.393030 -0.135370 
0.469410 17.410320 0.296050 -23.099465 30.555185 -12.391874 -15.293008 11.547203 2.511837 17.551440 -2.327167 -29.744959 -3.643518 8.759752 30.287119 -0.705109 6.339040 2.242374 0.165380 -0.185670 -0.098550 18.636890 -7.428949 6.375297 -21.231795 15.600245 -54.681738 44.568748 -35.252862 54.647259 -2.734103 -13.280851 0.193171 0.058530 0.488740 0.094770 -4.195087 -2.410746 -9.662797 11.702619 -5.556074 44.431122 -5.190651 1.015709 2.811725 -0.866493 -8.528453 -9.728972 -22.367819 2.606425 45.630206 13.135840 -11.445000 -20.064590 -24.206852 -15.661011 1.323574 -23.093895 -10.743404 -8.119332 9.805314 -43.352471 -5.222611 -3.566970 2.491446 0.858940 -0.060940 -0.036120 0.186980 25.727314 22.179215 8.280344 31.370806 7.338337 -15.339873 -8.397566 46.824992 -4.374483 1.671154 -0.983698 -0.466140 0.677430 0.365740 -0.123150 
0.442280 17.405600 0.288030 -23.676696 30.087980 -12.547054 -15.291410 11.519995 2.491368 17.914239 -2.045447 -30.159722 -2.917736 8.674440 30.456901 -0.716055 6.352764 2.235232 0.140600 -0.214880 -0.125360 18.654771 -7.388432 6.419236 -21.288193 16.264380 -55.314700 44.813289 -35.065618 54.623520 -2.719246 -13.279287 0.201001 0.049840 0.519040 0.086690 -4.201791 -2.373870 -9.679127 11.447346 -5.345518 44.886412 -4.953555 1.234702 3.520150 -1.125088 -8.726982 -10.279947 -22.734237 3.116456 45.627392 14.094720 -11.544140 -19.669490 -23.214455 -16.605603 1.949243 -23.133286 -10.036500 -8.526322 11.652029 -43.778736 -6.048767 -3.563151 2.469177 0.856420 -0.050360 -0.057490 0.182190 25.364857 23.386657 8.572963 30.815736 7.938791 -15.929827 -9.682291 48.000304 -5.082129 1.650430 -0.972668 -0.483190 0.691680 0.387320 -0.116590 
